<svg xmlns="http://www.w3.org/2000/svg" width="256" height="256" fill="none" stroke="none" viewBox="0 0 256 256">
    <symbol id="head" width="64" height="64">
        <path fill="#73B671" d="M7.72 56.563C8.33 59.555 10.053 64 10.053 64h43.892s1.724-4.445 2.335-7.437c1.197-5.866.687-9.412 0-15.37-.592-5.128-1.036-8.076-2.802-12.89-1.748-4.767-3.205-7.292-6.07-11.404-2.839-4.074-9.159-9.044-9.159-9.044S34.882 5 32 5s-6.25 2.855-6.25 2.855-6.32 4.97-9.159 9.044c-2.865 4.112-4.322 6.637-6.07 11.403-1.766 4.815-2.21 7.763-2.802 12.891-.687 5.958-1.197 9.504 0 15.37Z" />
        <path stroke="#4C704B" stroke-linecap="round" stroke-width="4" d="M10.054 64S8.33 59.555 7.72 56.563c-1.197-5.866-.687-9.412 0-15.37.592-5.128 1.036-8.076 2.802-12.89 1.748-4.767 3.205-7.292 6.07-11.404 2.839-4.074 9.159-9.044 9.159-9.044S29.118 5 32 5s6.25 2.855 6.25 2.855 6.32 4.97 9.159 9.044c2.865 4.112 4.322 6.637 6.07 11.403 1.766 4.815 2.21 7.763 2.802 12.891.687 5.958 1.197 9.504 0 15.37C55.67 59.555 53.946 64 53.946 64" />
        <ellipse fill="#4C704B" rx="2" ry="3" transform="scale(-1 1) rotate(-12.5 42.136 136.762)" />
        <ellipse cx="35.602" cy="12.362" fill="#4C704B" rx="2" ry="3" transform="rotate(-12.5 35.602 12.362)" />
        <path fill="#4C704B" fill-rule="evenodd" d="M39.206 32.206c-1.464 1.465.514 5.818 4.42 9.723a25.738 25.738 0 0 0 2.248 2.004C44.86 44.616 43.714 45 42.5 45c-4.142 0-7.5-4.477-7.5-10s3.358-10 7.5-10c4.142 0 7.5 4.477 7.5 10 0 .863-.082 1.7-.236 2.499a26.776 26.776 0 0 0-.835-.873c-3.905-3.906-8.258-5.884-9.723-4.42Zm-14.412 0c1.464 1.465-.514 5.818-4.42 9.723a25.738 25.738 0 0 1-2.248 2.004C19.14 44.616 20.286 45 21.5 45c4.142 0 7.5-4.477 7.5-10s-3.358-10-7.5-10c-4.142 0-7.5 4.477-7.5 10 0 .863.082 1.7.236 2.499.267-.293.546-.584.835-.873 3.905-3.906 8.258-5.884 9.723-4.42Z" clip-rule="evenodd" />
    </symbol>

    <symbol id="turn" width="64" height="64">
        <path fill="#73B671" d="M64 8c30.928 0 56 25.072 56 56s-25.072 56-56 56S8 94.928 8 64 33.072 8 64 8Zm0 63.981a7.981 7.981 0 1 0 0-15.962 7.981 7.981 0 0 0 0 15.962Z" />
        <path fill="#6A9E68" d="M12.263 42.57A56 56 0 0 1 42.57 12.263l18.376 44.363a7.981 7.981 0 0 0-4.32 4.32L12.263 42.57Z" />
        <path stroke="#4C704B" stroke-width="4" d="M64 54a10 10 0 1 0 0 20.001A10 10 0 0 0 64 54Z" />
        <path stroke="#4C704B" stroke-width="4" d="M64 10a54.001 54.001 0 1 1 0 108.002A54.001 54.001 0 0 1 64 10Z" />
    </symbol>

    <symbol id="tail" width="64" height="64">
        <path fill="#73B671" d="M56 0c0 7.354-.62 14.636-1.827 21.43-1.206 6.794-2.974 12.968-5.202 18.168-2.229 5.2-4.875 9.325-7.787 12.14C38.273 54.55 35.152 56 32 56c-3.152 0-6.273-1.449-9.184-4.263-2.912-2.814-5.558-6.939-7.787-12.139-2.228-5.2-3.996-11.373-5.202-18.168C8.62 14.636 8 7.354 8 0h48Z" />
        <path fill="#6A9E68" d="M22 48 11 16h42L42 48H22Z" />
        <path stroke="#4C704B" stroke-width="4" d="M54 0c0 7.244-.612 14.41-1.796 21.08-1.185 6.676-2.915 12.697-5.072 17.73-2.162 5.046-4.677 8.917-7.337 11.49C37.145 52.86 34.496 54 32 54s-5.145-1.14-7.794-3.7c-2.661-2.572-5.176-6.444-7.338-11.49-2.157-5.033-3.887-11.054-5.072-17.73C10.612 14.41 10 7.245 10 0" />
    </symbol>

    <symbol id="straight" width="64" height="64">
        <path fill="#73B671" d="M8 64h64v48H8z" transform="rotate(-90 8 64)" />
        <path fill="#6A9E68" d="M8 48h32v48H8z" transform="rotate(-90 8 48)" />
        <path stroke="#4C704B" stroke-width="4" d="M10 64V0m44 64V0" />
    </symbol>

    <symbol id="apple" width="64" height="64">
        <path stroke="#8B5E36" stroke-width="3" d="M31.255 24.366v-4.39m0 0c0-2.744-2.248-5.488-2.248-5.488l2.248-2.195v7.683Z" />
        <path fill="#73B671" stroke="#4C704B" stroke-width="2" d="M32.65 17.965c.36-.485.872-1.117 1.519-1.784 1.413-1.457 3.414-3.018 5.866-3.66 2.453-.642 4.985-.267 6.955.305.902.262 1.668.56 2.23.803a18.197 18.197 0 0 1-1.52 1.785c-1.413 1.456-3.414 3.018-5.867 3.66-2.453.641-4.985.266-6.954-.306a18.807 18.807 0 0 1-2.23-.803Z" />
        <path fill="#DB4949" stroke="#9C4343" stroke-linejoin="round" stroke-width="4" d="m14.571 26.708.458-.547a9.655 9.655 0 0 1 6.21-3.368c3.107-.39 6.214.726 8.321 2.99l1.695 1.875 1.695-1.875c2.107-2.264 5.214-3.38 8.321-2.99a9.655 9.655 0 0 1 6.21 3.368l.458.547a10.946 10.946 0 0 1 2.273 9.577l-1.639 6.863a13.911 13.911 0 0 1-2.864 5.69l-1.623 1.942C42.382 52.818 39.83 54 37.136 54c-1.997 0-4.305-.995-5.88-2.195-1.577 1.2-3.884 2.195-5.882 2.195-2.694 0-5.245-1.182-6.95-3.22l-1.622-1.942a13.912 13.912 0 0 1-2.865-5.69l-1.639-6.863a10.946 10.946 0 0 1 2.273-9.577Z" />
    </symbol>

    <symbol id="cherry" width="64" height="64">
        <circle cx="25.3333" cy="43.3333" r="11.3333" fill="#DB4949" stroke="#9C4343" stroke-width="4" />
        <circle cx="38.6666" cy="43.3333" r="11.3333" fill="#DB4949" stroke="#9C4343" stroke-width="4" />
        <path d="M31.1579 13.6795C32.7017 20.421 31.442 27.0829 27.6558 32.1996L25.7421 30.7835C29.2064 26.1019 30.359 20.0064 28.9464 13.8381L31.1579 13.6795Z" fill="#8B5E36" />
        <path d="M30.0061 12.1605C32.8726 14.4083 35.1501 17.1526 36.6918 20.2166C38.2335 23.2806 39.0051 26.5963 38.957 29.95L36.5772 29.9525C36.6212 26.8839 35.9151 23.8501 34.5045 21.0466C33.0939 18.2431 31.0101 15.7321 28.3873 13.6755L30.0061 12.1605Z" fill="#8B5E36" />
        <path d="M31.6492 13.9652C32.0106 13.4799 32.5216 12.848 33.169 12.1807C34.5819 10.7242 36.5825 9.1628 39.0354 8.52098C41.4883 7.87915 44.0203 8.25454 45.9896 8.826C46.8919 9.08783 47.6581 9.38559 48.2195 9.62938C47.8581 10.1146 47.3471 10.7466 46.6997 11.4139C45.2868 12.8703 43.2862 14.4317 40.8333 15.0736C38.3804 15.7154 35.8484 15.34 33.8791 14.7685C32.9768 14.5067 32.2106 14.209 31.6492 13.9652Z" fill="#73B671" stroke="#4C704B" stroke-width="2" />
        <path d="M12.6551 10.0491C13.2148 9.81929 13.9783 9.54081 14.8769 9.30222C16.8381 8.78149 19.3571 8.4735 21.7902 9.18668C24.2233 9.89986 26.2004 11.5257 27.5941 13.0298C28.2327 13.719 28.736 14.3688 29.0917 14.8669C28.532 15.0967 27.7685 15.3752 26.8699 15.6138C24.9087 16.1345 22.3897 16.4425 19.9566 15.7294C17.5235 15.0162 15.5464 13.3903 14.1527 11.8862C13.5141 11.1971 13.0108 10.5472 12.6551 10.0491Z" fill="#73B671" stroke="#4C704B" stroke-width="2" />
    </symbol>

    <use x="0" y="0" href="#head" />
    <use x="0" y="64" href="#head" transform="translate(64) rotate(90, 0, 64)" />
    <use x="0" y="128" href="#head" transform="translate(64, 64) rotate(180, 0, 128)" />
    <use x="0" y="192" href="#head" transform="translate(0, 64) rotate(270, 0, 192)" />

    <use x="64" y="0" href="#tail" />
    <use x="64" y="64" href="#tail" transform="translate(64) rotate(90, 64, 64)" />
    <use x="64" y="128" href="#tail" transform="translate(64, 64) rotate(180, 64, 128)" />
    <use x="64" y="192" href="#tail" transform="translate(0, 64) rotate(270, 64, 192)" />

    <use x="128" y="0" href="#turn" />
    <use x="128" y="64" href="#turn" transform="translate(64) rotate(90, 128, 64)" />
    <use x="128" y="128" href="#turn" transform="translate(64, 64) rotate(180, 128, 128)" />
    <use x="128" y="192" href="#turn" transform="translate(0, 64) rotate(270, 128, 192)" />

    <use x="192" y="0" href="#straight" />
    <use x="192" y="64" href="#straight" transform="translate(64) rotate(90, 192, 64)" />

    <use x="192" y="128" href="#apple" />

    <use x="192" y="192" href="#cherry" />
</svg>
